HIERARCHY
ROOT Hips
{
	OFFSET 0.00000 0.00000 0.00000
	CHANNELS 6 Xposition Yposition Zposition Zrotation Yrotation Xrotation 
	JOINT LHipJoint
	{
		OFFSET 0 0 0
		CHANNELS 3 Zrotation Yrotation Xrotation
		JOINT LeftHip
		{
			OFFSET 1.48416 -1.82041 0.59464
			CHANNELS 3 Zrotation Yrotation Xrotation
			JOINT LeftKnee
			{
				OFFSET 2.43280 -6.68407 0.00000
				CHANNELS 3 Zrotation Yrotation Xrotation
				JOINT LeftAnkle
				{
					OFFSET 2.68325 -7.37216 0.00000
					CHANNELS 3 Zrotation Yrotation Xrotation
					JOINT LeftToe
					{
						OFFSET 0.15365 -0.42214 1.91990
						CHANNELS 3 Zrotation Yrotation Xrotation
						End Site
						{
							OFFSET 0.00000 -0.00000 0.99320
						}
					}
				}
			}
		}
	}
	JOINT RHipJoint
	{
		OFFSET 0 0 0
		CHANNELS 3 Zrotation Yrotation Xrotation
		JOINT RightHip
		{
			OFFSET -1.70852 -1.82040 0.59464
			CHANNELS 3 Zrotation Yrotation Xrotation
			JOINT RightKnee
			{
				OFFSET -2.50396 -6.87957 0.00000
				CHANNELS 3 Zrotation Yrotation Xrotation
				JOINT RightAnkle
				{
					OFFSET -2.67204 -7.34139 0.00000
					CHANNELS 3 Zrotation Yrotation Xrotation
					JOINT RightToe
					{
						OFFSET -0.17346 -0.47657 2.02009
						CHANNELS 3 Zrotation Yrotation Xrotation
						End Site
						{
							OFFSET -0.00000 -0.00000 1.04609
						}
					}
				}
			}
		}
	}
	JOINT lowerback
	{
		OFFSET 0 0 0
		CHANNELS 3 Zrotation Yrotation Xrotation
		JOINT Chest
		{
			OFFSET -0.01022 1.99636 -0.30653
			CHANNELS 3 Zrotation Yrotation Xrotation
			JOINT Chest2
			{
				OFFSET -0.01683 2.01212 0.04808
				CHANNELS 3 Zrotation Yrotation Xrotation
				JOINT lowerneck
				{
					OFFSET 0 0 0
					CHANNELS 3 Zrotation Yrotation Xrotation
					JOINT Neck
					{
						OFFSET -0.03080 1.91178 0.03911
						CHANNELS 3 Zrotation Yrotation Xrotation
						JOINT Head
						{
							OFFSET 0.10605 1.89839 -0.23433
							CHANNELS 3 Zrotation Yrotation Xrotation
							End Site
							{
								OFFSET 0.03474 1.92469 -0.08609
							}
						}
					}
				}
				JOINT LeftCollar
				{
					OFFSET 0 0 0
					CHANNELS 3 Zrotation Yrotation Xrotation
					JOINT LeftShoulder
					{
						OFFSET 3.78977 1.27972 -0.24661
CHANNELS 3 Zrotation Xrotation Yrotation
						JOINT LeftElbow
						{
OFFSET 0 -5.641470 -0.000000
CHANNELS 3 Zrotation Xrotation Yrotation
							JOINT LeftWrist
							{
OFFSET 0 -2.864440 -0.000000
CHANNELS 3 Zrotation Xrotation Yrotation
								JOINT lhand
								{
									OFFSET 0 0 0
CHANNELS 3 Zrotation Xrotation Yrotation
									JOINT LFingers
									{
OFFSET 0 -0.722120 -0.000000
CHANNELS 3 Zrotation Xrotation Yrotation
										End Site
										{
OFFSET 0 -0.582190 -0.000000
										}
									}
								}
								JOINT LThumb
								{
OFFSET 0 0.000000 0.000000
CHANNELS 3 Zrotation Xrotation Yrotation
									End Site
									{
OFFSET 0 -0.591080 0.591080
									}
								}
							}
						}
					}
				}
				JOINT RightCollar
				{
					OFFSET 0 0 0
					CHANNELS 3 Zrotation Yrotation Xrotation
					JOINT RightShoulder
					{
						OFFSET -3.41176 1.18605 -0.57927
CHANNELS 3 Zrotation Xrotation Yrotation
						JOINT RightElbow
						{
OFFSET 0 -5.447290 -0.000000
CHANNELS 3 Zrotation Xrotation Yrotation
							JOINT RightWrist
							{
OFFSET 0 -3.088210 -0.000000
CHANNELS 3 Zrotation Xrotation Yrotation
								JOINT rhand
								{
									OFFSET 0 0 0
CHANNELS 3 Zrotation Xrotation Yrotation
									JOINT RFingers
									{
OFFSET 0 -0.821050 -0.000000
CHANNELS 3 Zrotation Xrotation Yrotation
										End Site
										{
OFFSET 0 -0.661950 -0.000000
										}
									}
								}
								JOINT RThumb
								{
OFFSET 0 0.000000 0.000000
CHANNELS 3 Zrotation Xrotation Yrotation
									End Site
									{
OFFSET 0 -0.672060 0.672060
									}
								}
							}
						}
					}
				}
			}
		}
	}
}
MOTION
Frames: 8
Frame Time: 0.008333333333333333
3.021506 17.692276 0.573653 -14.439320 87.618665 -15.632731 0.000000 0.000000 0.000000 -14.902353 2.562114 4.409910 0.091748 1.953433 5.376902 0.336824 -0.853706 -10.695479 0.152443 -2.515641 -6.933012 0.000000 0.000000 0.000000 19.886935 0.348263 -0.022988 -0.692505 -5.319874 14.823210 -0.618277 6.061477 -14.032469 -0.094368 1.980734 -5.452544 4.646182 -0.571582 7.079205 -1.826709 -0.414039 -2.908364 -4.491863 -0.460100 -7.095189 -5.976018 -5.087040 -7.257018 8.098164 -7.204605 13.825192 2.999786 -3.204941 5.877980 0.000000 0.000000 0.000000 72.674909 3.463975 24.645850 90.712544 -59.998082 60.617053 -7.901560 -19.155687 -44.318924 0.000000 0.000000 0.000000 -7.125000 0.000000 0.000000 -58.949030 64.855084 33.365402 0.000000 0.000000 0.000000 -43.835330 34.926430 88.340712 -125.968281 -54.497538 -90.573932 3.431235 9.643379 -12.749368 0.000000 0.000000 0.000000 7.125000 0.000000 0.000000 20.937899 17.635426 14.624040
3.023136 17.692376 0.573288 -14.266778 87.562532 -15.477881 0.000000 0.000000 0.000000 -14.891048 2.645359 4.401802 0.092734 1.964339 5.407068 0.339661 -0.873993 -10.735811 0.159890 -2.576517 -7.101820 0.000000 0.000000 0.000000 19.899424 0.361169 0.001439 -0.692319 -5.319227 14.821321 -0.622813 5.954856 -14.076656 -0.113870 2.175458 -5.990813 4.650070 -0.533711 7.055233 -1.839173 -0.365642 -2.857547 -4.513153 -0.433801 -7.021625 -5.890149 -5.094995 -7.391991 8.106814 -7.222450 13.806557 2.983892 -3.205978 5.894044 0.000000 0.000000 0.000000 72.664962 3.337786 24.720760 90.539351 -59.998900 60.467073 -7.357279 -19.039836 -44.610131 0.000000 0.000000 0.000000 -7.125000 0.000000 0.000000 -59.004179 65.179126 33.813630 0.000000 0.000000 0.000000 -43.715048 34.880435 88.201067 -125.927470 -54.511569 -90.540644 3.488156 9.674668 -12.811544 0.000000 0.000000 0.000000 7.125000 0.000000 0.000000 20.967214 17.577636 14.676635
3.021619 17.693700 0.571553 -16.119842 87.585132 -17.293464 0.000000 0.000000 0.000000 -14.822509 2.564533 4.219673 0.101800 2.057053 5.663406 0.348532 -0.925812 -10.864515 0.180359 -2.735099 -7.542164 0.000000 0.000000 0.000000 19.972992 0.382973 0.021264 -0.682953 -5.283865 14.720043 -0.620126 5.981110 -14.048762 -0.092655 1.963009 -5.403407 4.748157 -0.557947 7.047730 -1.821063 -0.387481 -2.867297 -4.546852 -0.449131 -7.031472 -5.943191 -5.093649 -7.363973 8.184128 -7.220798 13.696846 3.017845 -3.205619 5.859552 0.000000 0.000000 0.000000 72.629094 3.428232 24.600463 90.421622 -59.999300 60.365145 -7.259851 -18.833397 -44.616392 0.000000 0.000000 0.000000 -7.125000 0.000000 0.000000 -58.934094 65.211676 33.801497 0.000000 0.000000 0.000000 -43.703896 34.869927 88.214556 -125.885829 -54.525773 -90.506738 3.477693 9.692531 -12.851407 0.000000 0.000000 0.000000 7.125000 0.000000 0.000000 20.955542 17.540215 14.685898
3.022260 17.690751 0.570143 -14.709476 87.623182 -15.886089 0.000000 0.000000 0.000000 -14.897733 2.573871 4.222714 0.101657 2.055890 5.660123 0.345553 -1.023136 -10.792852 0.160151 -2.578448 -7.107262 0.000000 0.000000 0.000000 19.886640 0.333220 -0.007916 -0.686289 -5.296543 14.756341 -0.619996 5.981782 -14.046598 -0.094049 1.978215 -5.445388 4.700502 -0.529887 7.047113 -1.848343 -0.356523 -2.854797 -4.552825 -0.431634 -7.013688 -5.942627 -5.134431 -7.377801 8.180431 -7.274278 13.665050 3.011705 -3.232301 5.855902 0.000000 0.000000 0.000000 72.599174 3.335807 24.610072 90.213946 -59.999800 60.185262 -7.296508 -18.671240 -44.517948 0.000000 0.000000 0.000000 -7.125000 0.000000 0.000000 -58.791282 65.145809 33.611713 0.000000 0.000000 0.000000 -43.604292 35.074858 88.069423 -125.943375 -54.506073 -90.553645 3.556930 9.786033 -12.872956 0.000000 0.000000 0.000000 7.125000 0.000000 0.000000 21.004303 17.520625 14.735172
3.021978 17.691293 0.568549 -15.243188 87.634326 -16.454026 0.000000 0.000000 0.000000 -14.879573 2.565785 4.179619 0.106791 2.106947 5.801252 0.353740 -1.015353 -10.924430 0.178198 -2.719185 -7.497961 0.000000 0.000000 0.000000 19.899890 0.315881 0.064138 -0.681093 -5.276738 14.699620 -0.614862 5.963200 -13.988749 -0.090966 1.944929 -5.353398 4.714387 -0.548044 7.069604 -1.825611 -0.378289 -2.798975 -4.533324 -0.440120 -6.969459 -5.991436 -5.129578 -7.437577 8.231480 -7.264051 13.600218 3.035325 -3.226680 5.848918 0.000000 0.000000 0.000000 72.494053 3.304505 24.804584 90.219318 -59.999829 60.189931 -7.507973 -18.710514 -44.533730 0.000000 0.000000 0.000000 -7.125000 0.000000 0.000000 -58.995306 65.091709 33.697461 0.000000 0.000000 0.000000 -43.617098 35.019672 87.983432 -125.961341 -54.499969 -90.568204 3.641728 9.738816 -12.913761 0.000000 0.000000 0.000000 7.125000 0.000000 0.000000 21.054204 17.482934 14.794570
3.021323 17.690207 0.566786 -15.211376 87.658304 -16.399049 0.000000 0.000000 0.000000 -14.888905 2.562057 4.150605 0.105736 2.096989 5.773728 0.346868 -1.079878 -10.799369 0.167331 -2.635190 -7.264698 0.000000 0.000000 0.000000 19.880911 0.247899 0.003563 -0.683278 -5.284991 14.723179 -0.615284 5.987846 -13.994542 -0.088733 1.921044 -5.287469 4.703045 -0.546298 7.062441 -1.812347 -0.376361 -2.809614 -4.513006 -0.438757 -6.976096 -6.033683 -5.130818 -7.415032 8.238791 -7.262198 13.601053 3.045187 -3.227932 5.846872 0.000000 0.000000 0.000000 72.460187 3.255212 24.826828 90.173584 -59.999877 60.150328 -7.527083 -18.601872 -44.508677 0.000000 0.000000 0.000000 -7.125000 0.000000 0.000000 -58.967018 65.072057 33.651563 0.000000 0.000000 0.000000 -43.693232 35.025740 87.993516 -126.009183 -54.483503 -90.607208 3.579098 9.780880 -12.903526 0.000000 0.000000 0.000000 7.125000 0.000000 0.000000 21.014923 17.492139 14.758043
3.022100 17.691718 0.567274 -15.634651 87.649149 -16.794210 0.000000 0.000000 0.000000 -14.865808 2.621504 4.217033 0.099252 2.031342 5.592314 0.344528 -1.061036 -10.766715 0.161894 -2.591501 -7.143439 0.000000 0.000000 0.000000 19.906410 0.351337 -0.003039 -0.685018 -5.291554 14.742062 -0.621312 5.980233 -14.061194 -0.086830 1.900411 -5.230392 4.706428 -0.540575 7.011674 -1.809869 -0.370841 -2.790775 -4.512582 -0.434330 -6.926031 -5.974142 -5.138975 -7.479918 8.126187 -7.267570 13.699005 2.997757 -3.232080 5.882923 0.000000 0.000000 0.000000 72.424480 3.254140 24.888232 90.395372 -59.999418 60.342381 -7.384267 -18.493814 -44.506125 0.000000 0.000000 0.000000 -7.125000 0.000000 0.000000 -58.843438 65.112968 33.609823 0.000000 0.000000 0.000000 -43.659346 35.016074 87.975694 -126.008877 -54.483580 -90.606967 3.506057 9.762281 -12.875098 0.000000 0.000000 0.000000 7.125000 0.000000 0.000000 20.971047 17.518282 14.709470
3.022419 17.691078 0.566633 -15.184776 87.641773 -16.350058 0.000000 0.000000 0.000000 -14.878731 2.653516 4.192282 0.100766 2.046987 5.635497 0.344648 -1.133699 -10.749814 0.155885 -2.543921 -7.011407 0.000000 0.000000 0.000000 19.886836 0.338658 0.007571 -0.683463 -5.285556 14.724957 -0.618037 5.959327 -14.023854 -0.097792 2.015259 -5.547974 4.691995 -0.541433 7.064219 -1.815585 -0.371011 -2.808660 -4.510890 -0.435670 -6.975382 -6.008703 -5.131834 -7.493572 8.143129 -7.260127 13.801757 3.009159 -3.226252 5.918677 0.000000 0.000000 0.000000 72.402313 3.164569 25.030020 90.244975 -59.999759 60.212164 -7.278257 -18.498634 -44.436474 0.000000 0.000000 0.000000 -7.125000 0.000000 0.000000 -58.633062 65.105448 33.442606 0.000000 0.000000 0.000000 -43.655310 35.085072 87.902725 -126.067811 -54.463356 -90.654889 3.727317 9.864333 -12.934066 0.000000 0.000000 0.000000 7.125000 0.000000 0.000000 21.107142 17.464515 14.846930
